<svg width="25" height="25" viewBox="0 0 25 25" fill="none" xmlns="http://www.w3.org/2000/svg">
<path d="M18.8507 6.07311C18.4549 5.66951 17.9849 5.34935 17.4676 5.13092C16.9503 4.91248 16.3959 4.80005 15.836 4.80005C15.276 4.80005 14.7216 4.91248 14.2043 5.13092C13.687 5.34935 13.217 5.66951 12.8212 6.07311L11.9997 6.91033L11.1782 6.07311C10.3786 5.25825 9.29418 4.80047 8.16343 4.80047C7.03267 4.80047 5.94822 5.25825 5.14866 6.07311C4.34909 6.88797 3.8999 7.99316 3.8999 9.14554C3.8999 10.2979 4.34909 11.4031 5.14866 12.218L5.97016 13.0552L11.9997 19.2001L18.0292 13.0552L18.8507 12.218C19.2468 11.8146 19.5609 11.3356 19.7752 10.8084C19.9896 10.2812 20.0999 9.71618 20.0999 9.14554C20.0999 8.5749 19.9896 8.00985 19.7752 7.48268C19.5609 6.9555 19.2468 6.47652 18.8507 6.07311Z" stroke="#F05658" stroke-width="2" stroke-linecap="round" stroke-linejoin="round"/>
</svg>
