<svg width="106" height="92" viewBox="0 0 106 92" fill="none" xmlns="http://www.w3.org/2000/svg">
<path d="M97.8264 8.13347C95.2364 5.55492 92.1611 3.50944 88.7765 2.11387C85.3918 0.718301 81.7639 0 78.1002 0C74.4364 0 70.8086 0.718301 67.4239 2.11387C64.0392 3.50944 60.964 5.55492 58.3739 8.13347L52.9986 13.4824L47.6234 8.13347C42.3916 2.92742 35.2959 0.00269847 27.8971 0.00269853C20.4983 0.00269858 13.4026 2.92742 8.17088 8.13347C2.93915 13.3395 5.51252e-08 20.4004 0 27.7629C-5.51252e-08 35.1253 2.93915 42.1862 8.17088 47.3923L13.5462 52.7412L52.9986 92L92.4511 52.7412L97.8264 47.3923C100.418 44.815 102.473 41.7548 103.876 38.3868C105.278 35.0187 106 31.4086 106 27.7629C106 24.1171 105.278 20.5071 103.876 17.139C102.473 13.7709 100.418 10.7108 97.8264 8.13347Z" fill="#EE4245"/>
</svg>
