<svg width="20" height="18" viewBox="0 0 20 18" fill="none" xmlns="http://www.w3.org/2000/svg">
<path d="M16.8507 3.07311C16.4549 2.66951 15.9849 2.34935 15.4676 2.13092C14.9503 1.91248 14.3959 1.80005 13.836 1.80005C13.276 1.80005 12.7216 1.91248 12.2043 2.13092C11.687 2.34935 11.217 2.66951 10.8212 3.07311L9.9997 3.91033L9.17819 3.07311C8.37863 2.25825 7.29418 1.80047 6.16343 1.80047C5.03267 1.80047 3.94822 2.25825 3.14866 3.07311C2.34909 3.88797 1.8999 4.99316 1.8999 6.14554C1.8999 7.29793 2.34909 8.40311 3.14866 9.21797L3.97016 10.0552L9.9997 16.2001L16.0292 10.0552L16.8507 9.21797C17.2468 8.81456 17.5609 8.33559 17.7752 7.80841C17.9896 7.28123 18.0999 6.71618 18.0999 6.14554C18.0999 5.5749 17.9896 5.00985 17.7752 4.48268C17.5609 3.9555 17.2468 3.47652 16.8507 3.07311Z" stroke="#F05658" stroke-width="2" stroke-linecap="round" stroke-linejoin="round"/>
</svg>
